<?xml version="1.0" encoding="UTF-8" standalone="no"?>
<!-- Created with Inkscape (http://www.inkscape.org/) -->

<svg
   xmlns:dc="http://purl.org/dc/elements/1.1/"
   xmlns:cc="http://creativecommons.org/ns#"
   xmlns:rdf="http://www.w3.org/1999/02/22-rdf-syntax-ns#"
   xmlns:svg="http://www.w3.org/2000/svg"
   xmlns="http://www.w3.org/2000/svg"
   xmlns:inkscape="http://www.inkscape.org/namespaces/inkscape"
   version="1.1"
   width="600"
   height="600"
   id="svg2997">
  <defs
     id="defs19" />
  <metadata
     id="metadata3002">
    <rdf:RDF>
      <cc:Work
         rdf:about="">
        <dc:format>image/svg+xml</dc:format>
        <dc:type
           rdf:resource="http://purl.org/dc/dcmitype/StillImage" />
        <dc:title />
      </cc:Work>
    </rdf:RDF>
  </metadata>
  <g
     transform="translate(-88.571,-155.22)"
     id="g3057">
    <g
       transform="translate(88.571,155.22)"
       id="g4097">
      <path
         d="M 0,50 C 0,22.386 22.385,0 50,0 h 500 c 27.614,0 50,22.386 50,50 v 500 c 0,27.615 -22.386,50 -50,50 H 50 C 22.385,600 0,577.62 0,550 V 50 z"
         inkscape:connector-curvature="0"
         id="path4099" />
      <path
         d="M 300,300"
         inkscape:connector-curvature="0"
         id="path4101" />
    </g>
    <g
       id="g3051">
      <g
         transform="matrix(0.39465,0,0,0.39465,-753.67,260.87)"
         id="g3783-5-2">
        <path
           d="M 2455.5,-227.53 2151.8,40.85 c 95.691,54.056 160.31,156.69 160.31,274.44 0,58.027 -15.751,112.35 -43.125,159.03 -6.0012,10.234 -12.637,20.046 -19.719,29.5 -2.8607,4.7586 -5.6558,9.5784 -8.3125,14.469 -2.9441,5.4198 -5.7516,10.895 -8.4375,16.469 -2.6858,5.574 -5.2368,11.249 -7.6562,16.969 -2.4194,5.7202 -4.6987,11.485 -6.8438,17.344 -2.145,5.8584 -4.1686,11.793 -6.0312,17.781 -1.8627,5.9886 -3.584,12.045 -5.1563,18.156 -1.5722,6.1108 -2.9761,12.275 -4.25,18.5 -1.2738,6.225 -2.4076,12.513 -3.375,18.844 -0.9673,6.3311 -1.7845,12.727 -2.4375,19.156 -0.6529,6.4293 -1.1382,12.887 -1.4687,19.406 -0.3305,6.5194 -0.5,13.086 -0.5,19.688 0,6.6015 0.1695,13.168 0.5,19.688 0.3305,6.5194 0.8158,12.977 1.4687,19.406 0.653,6.4293 1.4702,12.825 2.4375,19.156 0.9674,6.3311 2.1012,12.619 3.375,18.844 1.2739,6.2249 2.6778,12.389 4.25,18.5 1.5723,6.1107 3.2936,12.168 5.1563,18.156 1.8626,5.9886 3.8862,11.923 6.0312,17.781 2.1451,5.8587 4.4244,11.624 6.8438,17.344 2.4194,5.7202 4.9704,11.394 7.6562,16.969 2.6859,5.5735 5.4934,11.049 8.4375,16.469 2.9442,5.4198 6.0242,10.773 9.2188,16.031 3.1946,5.2572 6.5006,10.444 9.9375,15.531 3.4369,5.0873 7.0163,10.059 10.688,14.969 3.6712,4.9086 7.4462,9.7459 11.344,14.469 3.8976,4.7228 7.9154,9.3465 12.031,13.875 4.1159,4.5285 8.3301,8.9547 12.656,13.281 4.3262,4.3259 8.7528,8.5403 13.281,12.656 4.5285,4.1159 9.1522,8.1341 13.875,12.031 4.7227,3.8978 9.5597,7.6726 14.469,11.344 4.9091,3.6712 9.8815,7.2506 14.969,10.688 5.0873,3.4369 10.274,6.7429 15.531,9.9375 5.2576,3.1946 10.612,6.2742 16.031,9.2188 5.4198,2.9438 10.895,5.7519 16.469,8.4374 5.574,2.6861 11.249,5.2369 16.969,7.6563 5.7202,2.4194 11.485,4.6988 17.344,6.8437 2.7997,1.0254 5.6701,1.9143 8.5,2.875 6.9951,1.9608 14.006,3.8715 21.062,5.6876 7.998,2.0571 16.02,4.0424 24.094,5.9062 6.8303,1.5767 13.708,3.0358 20.594,4.4688 1.2538,0.2606 2.4951,0.556 3.75,0.8124 8.1474,1.6676 16.313,3.2508 24.531,4.7188 8.2182,1.468 16.495,2.8271 24.781,4.0938 8.2864,1.2655 16.586,2.4377 24.938,3.5 8.3519,1.0612 16.742,2.0199 25.156,2.875 8.4148,0.8541 16.869,1.6046 25.344,2.25 8.1324,0.6183 16.283,1.1079 24.469,1.5312 0.6494,0 1.287,-0.062 1.9375,-0.062 7.3954,0 14.692,0.3998 21.938,1 81.289,6.7337 152.44,50.344 197.44,112.94 44.998,-62.594 116.15,-106.2 197.44,-112.94 7.2451,-0.6002 14.542,-1 21.938,-1 0.6505,0 1.2881,0.062 1.9375,0.062 8.1855,-0.4233 16.336,-0.9129 24.469,-1.5312 8.475,-0.6453 16.929,-1.3959 25.344,-2.25 8.4148,-0.8551 16.804,-1.8138 25.156,-2.875 8.3518,-1.0623 16.651,-2.2345 24.938,-3.5 8.2862,-1.2667 16.563,-2.6258 24.781,-4.0938 8.2182,-1.468 16.384,-3.0512 24.531,-4.7188 1.2549,-0.2563 2.4963,-0.5519 3.75,-0.8124 6.8856,-1.4329 13.764,-2.8922 20.594,-4.4688 8.074,-1.8639 16.096,-3.8491 24.094,-5.9062 7.0562,-1.8161 14.067,-3.7268 21.062,-5.6876 2.83,-0.9608 5.7003,-1.8496 8.5,-2.875 5.8586,-2.1449 11.624,-4.4243 17.344,-6.8437 5.7202,-2.4194 11.395,-4.9701 16.969,-7.6563 5.5737,-2.6856 11.049,-5.4937 16.469,-8.4374 5.4198,-2.9445 10.774,-6.0243 16.031,-9.2188 5.2573,-3.1947 10.444,-6.5007 15.531,-9.9375 5.0873,-3.437 10.06,-7.0164 14.969,-10.688 4.909,-3.6713 9.746,-7.4459 14.469,-11.344 4.7228,-3.8973 9.3465,-7.9154 13.875,-12.031 4.5285,-4.116 8.9551,-8.3304 13.281,-12.656 4.326,-4.3265 8.5403,-8.7529 12.656,-13.281 4.1159,-4.5286 8.1338,-9.1523 12.031,-13.875 3.8977,-4.7228 7.6726,-9.5601 11.344,-14.469 3.6712,-4.9095 7.2506,-9.8816 10.688,-14.969 3.4369,-5.0874 6.7429,-10.274 9.9375,-15.531 3.1946,-5.258 6.2745,-10.612 9.2188,-16.031 2.944,-5.4199 5.7516,-10.895 8.4374,-16.469 2.6858,-5.5743 5.2369,-11.249 7.6563,-16.969 2.4194,-5.7203 4.6987,-11.485 6.8437,-17.344 2.145,-5.8581 4.1687,-11.793 6.0313,-17.781 1.8627,-5.9887 3.584,-12.046 5.1563,-18.156 1.5722,-6.111 2.9759,-12.275 4.25,-18.5 1.2736,-6.2252 2.4076,-12.513 3.375,-18.844 0.9672,-6.3312 1.7845,-12.727 2.4374,-19.156 0.6531,-6.4293 1.1383,-12.887 1.4688,-19.406 0.3305,-6.5195 0.5,-13.086 0.5,-19.688 0,-6.6016 -0.1695,-13.168 -0.5,-19.688 -0.3305,-6.5195 -0.8157,-12.977 -1.4688,-19.406 -0.6529,-6.4293 -1.4702,-12.825 -2.4374,-19.156 -0.9674,-6.3312 -2.1014,-12.619 -3.375,-18.844 -1.274,-6.225 -2.6779,-12.389 -4.25,-18.5 -1.5725,-6.1108 -3.2936,-12.168 -5.1563,-18.156 -1.8626,-5.9887 -3.8862,-11.923 -6.0313,-17.781 -2.145,-5.8584 -4.4243,-11.624 -6.8437,-17.344 -2.4194,-5.7203 -4.9703,-11.395 -7.6563,-16.969 -2.6857,-5.574 -5.4933,-11.049 -8.4374,-16.469 -2.6568,-4.8905 -5.4518,-9.7102 -8.3126,-14.469 -7.0815,-9.4541 -13.718,-19.266 -19.719,-29.5 -27.374,-46.682 -43.125,-101 -43.125,-159.03 0,-117.74 64.621,-220.38 160.31,-274.44 l -303.75,-268.38 c -56.769,55.377 -133.8,90 -219.38,90 -85.284,0 -162.66,-34.95 -219.38,-90 -56.718,55.05 -134.09,90 -219.38,90 -85.57,0 -162.61,-34.623 -219.38,-90 z m 438.75,140.62 c 9.315,0 16.875,7.56 16.875,16.875 0,9.315 -7.56,16.875 -16.875,16.875 -9.315,0 -16.875,-7.56 -16.875,-16.875 0,-9.315 7.56,-16.875 16.875,-16.875 z m 0,1080 c 9.315,0 16.875,7.56 16.875,16.875 0,9.315 -7.56,16.875 -16.875,16.875 -9.315,0 -16.875,-7.56 -16.875,-16.875 0,-9.315 7.56,-16.875 16.875,-16.875 z"
           inkscape:connector-curvature="0"
           id="path2939-8-9"
           style="fill:#ffffff;stroke:#000000;stroke-width:0.89999998;stroke-miterlimit:4;stroke-dasharray:none" />
      </g>
      <rect
         width="36.103001"
         height="33.429001"
         rx="37.5"
         ry="33.429001"
         x="369.06"
         y="217.97"
         id="rect3047"
         style="fill:#ffffff;fill-rule:nonzero" />
      <rect
         width="29.417999"
         height="26.743"
         rx="16.5"
         ry="13.929"
         x="371.73001"
         y="645.85999"
         id="rect3049"
         style="fill:#ffffff;fill-rule:nonzero" />
    </g>
  </g>
  <g
     id="routenum"
     style="font-size:440.29998779px;font-style:normal;font-variant:normal;font-weight:normal;font-stretch:normal;text-align:center;line-height:125%;writing-mode:lr-tb;text-anchor:middle;fill:#000000;font-family:Roadgeek 2005 Series B">
    <path
       d="m 164.9,151.54 h 26.444 v 198.01 h 19.564 v 26.444 h -19.564 v 69.012 H 164.9 V 375.994 H 81.699 V 349.55 L 164.9,151.54 m 0,198.01 V 218.62 L 110.292,349.55 H 164.9"
       inkscape:connector-curvature="0"
       id="path2993" />
    <path
       d="m 300.97,145.73 c 14.189,3e-4 26.229,5.2317 36.118,15.694 6.4496,6.7366 10.893,16.053 13.329,27.949 6.5929,31.102 9.8894,67.364 9.8896,108.79 -1.4e-4,41.565 -3.2967,77.898 -9.8896,109 -2.8667,13.903 -8.5281,24.437 -16.984,31.604 -9.4597,8.0263 -20.567,12.039 -33.323,12.039 -14.906,-10e-6 -27.304,-5.2314 -37.193,-15.694 -6.3064,-6.7364 -10.678,-16.053 -13.114,-27.949 -6.5931,-30.959 -9.8896,-67.22 -9.8896,-108.79 -2e-5,-41.135 3.2965,-77.468 9.8896,-109 2.8665,-13.902 8.5279,-24.509 16.984,-31.819 9.4595,-7.8827 20.854,-11.824 34.183,-11.824 m -0.42998,31.174 c -13.186,2.7e-4 -21.427,9.6032 -24.724,28.809 -1.1467,7.0232 -2.7233,20.353 -4.7298,39.988 -1.72,17.199 -2.5799,34.614 -2.5799,52.243 -5e-5,20.496 1.4332,43.428 4.2998,68.797 2.5798,22.789 5.303,36.548 8.1696,41.278 4.873,7.7397 11.251,11.61 19.134,11.609 12.899,3e-5 20.997,-9.6029 24.294,-28.809 1.2898,-7.3096 2.8664,-20.639 4.7298,-39.988 1.7198,-17.199 2.5798,-34.757 2.5799,-52.673 -1.2e-4,-23.075 -2.0784,-51.239 -6.2347,-84.491 -1.4334,-12.326 -3.5116,-20.71 -6.2347,-25.154 -4.7299,-7.7394 -10.965,-11.609 -18.704,-11.609"
       inkscape:connector-curvature="0"
       id="path2995" />
    <path
       d="m 466.27,151.54 h 26.444 v 198.01 h 19.564 v 26.444 h -19.564 v 69.012 H 466.27 V 375.994 H 383.069 V 349.55 L 466.27,151.54 m 0,198.01 V 218.62 l -54.608,130.93 h 54.608"
       inkscape:connector-curvature="0"
       id="path2997" />
  </g>
</svg>
