<?xml version="1.0" encoding="utf-8"?>
<!-- Generator: Adobe Illustrator 18.1.1, SVG Export Plug-In . SVG Version: 6.00 Build 0)  -->
<!DOCTYPE svg PUBLIC "-//W3C//DTD SVG 1.1//EN" "http://www.w3.org/Graphics/SVG/1.1/DTD/svg11.dtd">
<svg version="1.1" xmlns="http://www.w3.org/2000/svg" xmlns:xlink="http://www.w3.org/1999/xlink" x="0px" y="0px"
	 viewBox="0 0 960 960" enable-background="new 0 0 960 960" xml:space="preserve">
<g id="background">
	<g>
		<g>
			<path fill="#DDC4A7" d="M946,14v932H14V14H946 M960,0H0v960h960V0L960,0z"/>
		</g>
	</g>
</g>
<g id="photo">
	<g id="frame">
		<rect x="46.6" y="43.1" fill="#FFC74E" width="423.4" height="288.2"/>
	</g>
	<g id="frame_1_">
		<rect x="67.7" y="57.5" fill="#FFFFFF" width="381" height="259.4"/>
		<rect x="84.6" y="74.3" fill="#E3F5FA" width="345.5" height="226.9"/>
	</g>
	<g>
		<defs>
			<rect id="SVGID_1_" x="84.6" y="74.3" width="345.5" height="226.9"/>
		</defs>
		<clipPath id="SVGID_2_">
			<use xlink:href="#SVGID_1_"  overflow="visible"/>
		</clipPath>
		<polygon clip-path="url(#SVGID_2_)" fill="#73A353" points="411.8,158.3 380.1,103.6 374.3,113.8 355.9,82 335.6,117 327.9,103.7 
			298.2,155.1 289.7,140.3 268.6,176.7 247.5,213 264.6,213 280,213 289.7,213 316.8,213 327.9,213 331.9,213 355.9,213 380.1,213 
			391.2,213 431.7,213 443.4,213 		"/>
		<polygon clip-path="url(#SVGID_2_)" fill="#E2E3E4" points="-109.2,213 460,213 460,302 218.2,302 		"/>
		<polygon clip-path="url(#SVGID_2_)" fill="#BC9F77" points="444.1,213 84,213 84,302 236.9,302 		"/>
	</g>
	<polygon fill="#73A353" points="279,189 265.2,165.1 259.5,174.8 247.9,154.7 238.4,171.2 232.4,160.8 217.4,186.9 202.4,213 
		214.4,213 232.4,213 237.6,213 247.9,213 262.4,213 265.2,213 281.5,213 292.7,213 	"/>
	<circle fill="#F8DB94" cx="143.1" cy="100.3" r="17.8"/>
</g>
<g id="document">
	<rect x="45.9" y="352.9" fill="#67ADA9" width="423.4" height="548.1"/>
	<rect x="67.1" y="380.3" fill="#FFFFFF" width="381" height="493.3"/>
	<g>
		<line fill="none" stroke="#999999" stroke-width="7" stroke-miterlimit="10" x1="90" y1="831.5" x2="244" y2="831.5"/>
		<line fill="none" stroke="#999999" stroke-width="7" stroke-miterlimit="10" x1="90" y1="794.5" x2="244" y2="794.5"/>
		<line fill="none" stroke="#999999" stroke-width="7" stroke-miterlimit="10" x1="90" y1="757.5" x2="244" y2="757.5"/>
		<line fill="none" stroke="#999999" stroke-width="7" stroke-miterlimit="10" x1="90" y1="719.5" x2="244" y2="719.5"/>
		<line fill="none" stroke="#999999" stroke-width="7" stroke-miterlimit="10" x1="90" y1="682.5" x2="244" y2="682.5"/>
		<line fill="none" stroke="#999999" stroke-width="7" stroke-miterlimit="10" x1="90" y1="645.5" x2="244" y2="645.5"/>
		<line fill="none" stroke="#999999" stroke-width="7" stroke-miterlimit="10" x1="90" y1="608.5" x2="244" y2="608.5"/>
		<line fill="none" stroke="#999999" stroke-width="7" stroke-miterlimit="10" x1="90" y1="571.5" x2="244" y2="571.5"/>
		<line fill="none" stroke="#999999" stroke-width="7" stroke-miterlimit="10" x1="90" y1="533.5" x2="244" y2="533.5"/>
		<line fill="none" stroke="#999999" stroke-width="7" stroke-miterlimit="10" x1="90" y1="496.5" x2="244" y2="496.5"/>
		<line fill="none" stroke="#999999" stroke-width="7" stroke-miterlimit="10" x1="90" y1="459.5" x2="244" y2="459.5"/>
		<line fill="none" stroke="#999999" stroke-width="7" stroke-miterlimit="10" x1="90" y1="422.5" x2="244" y2="422.5"/>
	</g>
	<g>
		<line fill="none" stroke="#999999" stroke-width="7" stroke-miterlimit="10" x1="268" y1="719.5" x2="422" y2="719.5"/>
		<line fill="none" stroke="#999999" stroke-width="7" stroke-miterlimit="10" x1="268" y1="682.5" x2="422" y2="682.5"/>
		<line fill="none" stroke="#999999" stroke-width="7" stroke-miterlimit="10" x1="268" y1="645.5" x2="422" y2="645.5"/>
		<line fill="none" stroke="#999999" stroke-width="7" stroke-miterlimit="10" x1="268" y1="608.5" x2="422" y2="608.5"/>
		<line fill="none" stroke="#999999" stroke-width="7" stroke-miterlimit="10" x1="268" y1="571.5" x2="422" y2="571.5"/>
		<line fill="none" stroke="#999999" stroke-width="7" stroke-miterlimit="10" x1="268" y1="533.5" x2="422" y2="533.5"/>
		<line fill="none" stroke="#999999" stroke-width="7" stroke-miterlimit="10" x1="268" y1="496.5" x2="422" y2="496.5"/>
		<line fill="none" stroke="#999999" stroke-width="7" stroke-miterlimit="10" x1="268" y1="459.5" x2="422" y2="459.5"/>
		<line fill="none" stroke="#999999" stroke-width="7" stroke-miterlimit="10" x1="268" y1="422.5" x2="422" y2="422.5"/>
	</g>
</g>
<g id="spreadsheets">
	<rect x="491.4" y="43.3" fill="#67ADA9" width="424" height="286.7"/>
	<rect x="512.6" y="57.6" fill="#FFFFFF" width="381.6" height="258"/>
	<rect x="537.5" y="172.7" display="none" fill="#D6562B" width="38.8" height="124.1"/>
	<rect x="532" y="223.4" fill="#313F76" width="38.8" height="73.4"/>
	<rect x="608.8" y="151" fill="#FFC74E" width="38.8" height="145.8"/>
	<rect x="685.5" y="78.6" fill="#D6562B" width="38.8" height="218.2"/>
	<rect x="762.2" y="138.4" fill="#3A7345" width="38.8" height="158.4"/>
	<rect x="839" y="244.3" fill="#FFC74E" width="38.8" height="52.4"/>
	<rect x="825.8" y="188.7" display="none" fill="#313F76" width="38.8" height="108"/>
</g>
<g id="database_1_">
	<g id="databases">
		<rect x="711.6" y="353" fill="#313F76" width="203.4" height="263.3"/>
		<g>
			<path fill="#FFC74E" d="M881.9,554.9H746.1c-5.5,0-10-4.5-10-10v-34.7c0-5.5,4.5-10,10-10h135.8c5.5,0,10,4.5,10,10v34.7
				C891.9,550.4,887.4,554.9,881.9,554.9z"/>
			<path fill="#FFC74E" d="M881.9,493.2H746.1c-5.5,0-10-4.5-10-10v-34.7c0-5.5,4.5-10,10-10h135.8c5.5,0,10,4.5,10,10v34.7
				C891.9,488.7,887.4,493.2,881.9,493.2z"/>
			<path fill="#FFC74E" d="M881.9,431.4H746.1c-5.5,0-10-4.5-10-10v-34.7c0-5.5,4.5-10,10-10h135.8c5.5,0,10,4.5,10,10v34.7
				C891.9,426.9,887.4,431.4,881.9,431.4z"/>
		</g>
		<path fill="#D6562B" d="M880,548h-24c-2.2,0-4-1.8-4-4v-9c0-2.2,1.8-4,4-4h24c2.2,0,4,1.8,4,4v9C884,546.2,882.2,548,880,548z"/>
		<path fill="#D6562B" d="M880,487h-24c-2.2,0-4-1.8-4-4v-9c0-2.2,1.8-4,4-4h24c2.2,0,4,1.8,4,4v9C884,485.2,882.2,487,880,487z"/>
		<path fill="#D6562B" d="M880,425h-24c-2.2,0-4-1.8-4-4v-9c0-2.2,1.8-4,4-4h24c2.2,0,4,1.8,4,4v9C884,423.2,882.2,425,880,425z"/>
	</g>
</g>
<g id="zip_file">
	<rect x="491" y="353" fill="#D6562B" width="203.4" height="263.3"/>
	<g>
		<path fill="#FFFFFF" d="M602.4,527.8h-13.8c-2.2,0-4-1.8-4-4v-2.5c0-2.2,1.8-4,4-4h13.8c2.2,0,4,1.8,4,4v2.5
			C606.4,526,604.6,527.8,602.4,527.8z"/>
		<path fill="#FFFFFF" d="M591.9,507.5h-13.8c-2.2,0-4-1.8-4-4V501c0-2.2,1.8-4,4-4h13.8c2.2,0,4,1.8,4,4v2.5
			C595.9,505.7,594.1,507.5,591.9,507.5z"/>
	</g>
	<g>
		<path fill="#FFFFFF" d="M602.4,484.8h-13.8c-2.2,0-4-1.8-4-4v-2.5c0-2.2,1.8-4,4-4h13.8c2.2,0,4,1.8,4,4v2.5
			C606.4,483,604.6,484.8,602.4,484.8z"/>
		<path fill="#FFFFFF" d="M591.9,464.5h-13.8c-2.2,0-4-1.8-4-4V458c0-2.2,1.8-4,4-4h13.8c2.2,0,4,1.8,4,4v2.5
			C595.9,462.7,594.1,464.5,591.9,464.5z"/>
	</g>
	<g>
		<path fill="#FFFFFF" d="M602.4,441.8h-13.8c-2.2,0-4-1.8-4-4v-2.5c0-2.2,1.8-4,4-4h13.8c2.2,0,4,1.8,4,4v2.5
			C606.4,440,604.6,441.8,602.4,441.8z"/>
		<path fill="#FFFFFF" d="M591.9,421.5h-13.8c-2.2,0-4-1.8-4-4V415c0-2.2,1.8-4,4-4h13.8c2.2,0,4,1.8,4,4v2.5
			C595.9,419.7,594.1,421.5,591.9,421.5z"/>
	</g>
	<g>
		<path fill="#FFFFFF" d="M602.4,399.8h-13.8c-2.2,0-4-1.8-4-4v-2.5c0-2.2,1.8-4,4-4h13.8c2.2,0,4,1.8,4,4v2.5
			C606.4,398,604.6,399.8,602.4,399.8z"/>
		<path fill="#FFFFFF" d="M591.9,379.5h-13.8c-2.2,0-4-1.8-4-4V373c0-2.2,1.8-4,4-4h13.8c2.2,0,4,1.8,4,4v2.5
			C595.9,377.7,594.1,379.5,591.9,379.5z"/>
	</g>
	<g>
		<path fill="#1A1F1C" d="M608.7,597.8h-31.4c-2.2,0-4-1.8-4-4v-50.8c0-2.2,1.8-4,4-4h31.4c2.2,0,4,1.8,4,4v50.8
			C612.7,596,610.9,597.8,608.7,597.8z"/>
		<path fill="#FFFFFF" d="M600.9,592.7h-15.6c-2.2,0-4-1.8-4-4v-27.3c0-2.2,1.8-4,4-4h15.6c2.2,0,4,1.8,4,4v27.3
			C604.9,590.9,603.1,592.7,600.9,592.7z"/>
	</g>
</g>
<g id="movies">
	<rect x="491" y="632" fill="#FFC74E" width="424" height="268"/>
	<rect x="491" y="632" display="none" fill="#FFFFFF" stroke="#000000" stroke-miterlimit="10" width="424" height="268"/>
	<rect x="503" y="648" fill="#808080" width="400" height="225"/>
	<rect x="545" y="670.5" fill="#FFFFFF" width="316" height="180"/>
	<g>
		<path d="M815,817.5H635.5c-2.2,0-4-1.8-4-4V736c0-2.2,1.8-4,4-4H815c2.2,0,4,1.8,4,4v77.5C819,815.7,817.2,817.5,815,817.5z"/>
		<path stroke="#FFFFFF" stroke-miterlimit="10" d="M809.9,812.1H682.6c-2.2,0-4-1.8-4-4v-66.7c0-2.2,1.8-4,4-4h127.4
			c2.2,0,4,1.8,4,4v66.7C813.9,810.3,812.1,812.1,809.9,812.1z"/>
		<path display="none" fill="#666666" d="M802.4,810.1H690.1c-2.2,0-4-1.8-4-4v-62.8c0-2.2,1.8-4,4-4h112.3c2.2,0,4,1.8,4,4v62.8
			C806.4,808.3,804.6,810.1,802.4,810.1z"/>
		<rect x="622.5" y="732" fill="#CCCCCC" width="16.5" height="75"/>
		<text transform="matrix(1 0 0 1 722.2499 792.0001)" display="none" fill="#FFFFFF" font-family="'FontAwesome'" font-size="48"></text>
	</g>
	<g>
		<rect x="694.9" y="708.7" fill="#4D4D4D" width="22.5" height="8.1"/>
		<rect x="683.7" y="715.7" fill="#808080" width="45" height="16.2"/>
		<path fill="#808080" d="M727.2,693h-43c-5,0-9,4-9,9c0,5,4,9,9,9h43c5,0,9-4,9-9C736.2,697,732.1,693,727.2,693z"/>
		<path fill="#333333" d="M596,690v-0.2c-16,0-28.5,0.1-28.5,11.9s12.5,12.1,28.5,12.1v0.1h90v-24H596z"/>
	</g>
	<g>
		<path fill="#FFFFFF" d="M897,861c0,2.2-1.8,4-4,4h-19c-2.2,0-4-1.8-4-4v-8c0-2.2,1.8-4,4-4h19c2.2,0,4,1.8,4,4V861z"/>
		<path fill="#FFFFFF" d="M897,822c0,2.2-1.8,4-4,4h-19c-2.2,0-4-1.8-4-4v-8c0-2.2,1.8-4,4-4h19c2.2,0,4,1.8,4,4V822z"/>
		<path fill="#FFFFFF" d="M897,784c0,2.2-1.8,4-4,4h-19c-2.2,0-4-1.8-4-4v-8c0-2.2,1.8-4,4-4h19c2.2,0,4,1.8,4,4V784z"/>
		<path fill="#FFFFFF" d="M897,745c0,2.2-1.8,4-4,4h-19c-2.2,0-4-1.8-4-4v-8c0-2.2,1.8-4,4-4h19c2.2,0,4,1.8,4,4V745z"/>
		<path fill="#FFFFFF" d="M897,707c0,2.2-1.8,4-4,4h-19c-2.2,0-4-1.8-4-4v-8c0-2.2,1.8-4,4-4h19c2.2,0,4,1.8,4,4V707z"/>
		<path fill="#FFFFFF" d="M897,669c0,2.2-1.8,4-4,4h-19c-2.2,0-4-1.8-4-4v-8c0-2.2,1.8-4,4-4h19c2.2,0,4,1.8,4,4V669z"/>
	</g>
	<g>
		<path fill="#FFFFFF" d="M537,861c0,2.2-1.8,4-4,4h-19c-2.2,0-4-1.8-4-4v-8c0-2.2,1.8-4,4-4h19c2.2,0,4,1.8,4,4V861z"/>
		<path fill="#FFFFFF" d="M537,822c0,2.2-1.8,4-4,4h-19c-2.2,0-4-1.8-4-4v-8c0-2.2,1.8-4,4-4h19c2.2,0,4,1.8,4,4V822z"/>
		<path fill="#FFFFFF" d="M537,784c0,2.2-1.8,4-4,4h-19c-2.2,0-4-1.8-4-4v-8c0-2.2,1.8-4,4-4h19c2.2,0,4,1.8,4,4V784z"/>
		<path fill="#FFFFFF" d="M537,745c0,2.2-1.8,4-4,4h-19c-2.2,0-4-1.8-4-4v-8c0-2.2,1.8-4,4-4h19c2.2,0,4,1.8,4,4V745z"/>
		<path fill="#FFFFFF" d="M537,707c0,2.2-1.8,4-4,4h-19c-2.2,0-4-1.8-4-4v-8c0-2.2,1.8-4,4-4h19c2.2,0,4,1.8,4,4V707z"/>
		<path fill="#FFFFFF" d="M537,669c0,2.2-1.8,4-4,4h-19c-2.2,0-4-1.8-4-4v-8c0-2.2,1.8-4,4-4h19c2.2,0,4,1.8,4,4V669z"/>
	</g>
	<g>
		<circle fill="#FFFFFF" cx="702.9" cy="756.4" r="50.4"/>
		<polygon fill="#D6562B" points="740,756.4 712,772.4 684,788.4 684,756.4 684,724.4 712,740.4 		"/>
	</g>
</g>
</svg>
