<?xml version="1.0" encoding="UTF-8" standalone="no"?>
<svg
   xmlns:dc="http://purl.org/dc/elements/1.1/"
   xmlns:cc="http://creativecommons.org/ns#"
   xmlns:rdf="http://www.w3.org/1999/02/22-rdf-syntax-ns#"
   xmlns:svg="http://www.w3.org/2000/svg"
   xmlns="http://www.w3.org/2000/svg"
   xmlns:sodipodi="http://sodipodi.sourceforge.net/DTD/sodipodi-0.dtd"
   xmlns:inkscape="http://www.inkscape.org/namespaces/inkscape"
   width="620.73871"
   height="327.47778"
   viewBox="0 0 620.73871 327.47778"
   version="1.1"
   xml:space="preserve"
   style="clip-rule:evenodd;fill-rule:evenodd;stroke-linejoin:round;stroke-miterlimit:1.41420996"
   id="svg327"
   sodipodi:docname="samvera-fall-TM.svg"
   inkscape:version="0.92.2 (5c3e80d, 2017-08-06)"><metadata
     id="metadata333"><rdf:RDF><cc:Work
         rdf:about=""><dc:format>image/svg+xml</dc:format><dc:type
           rdf:resource="http://purl.org/dc/dcmitype/StillImage" /><dc:title></dc:title></cc:Work></rdf:RDF></metadata><defs
     id="defs331" /><sodipodi:namedview
     pagecolor="#ffffff"
     bordercolor="#666666"
     borderopacity="1"
     objecttolerance="10"
     gridtolerance="10"
     guidetolerance="10"
     inkscape:pageopacity="0"
     inkscape:pageshadow="2"
     inkscape:window-width="2560"
     inkscape:window-height="1537"
     id="namedview329"
     showgrid="false"
     inkscape:zoom="2.5044876"
     inkscape:cx="289.60635"
     inkscape:cy="163.42875"
     inkscape:window-x="2552"
     inkscape:window-y="-8"
     inkscape:window-maximized="1"
     inkscape:current-layer="svg327" /><g
     id="Layer42"
     transform="matrix(-0.791026,-0.151321,-0.151321,0.791026,730.56235,-46.490974)"><g
       id="Layer41"
       transform="matrix(1.60474,0,0,1.55397,-282.85,-132.238)"><g
         transform="matrix(1.00133,0,0,1.03404,-16.2338,-22.9733)"
         id="g142"><circle
           cx="642.07898"
           cy="400.33301"
           r="17.117001"
           style="fill:#f6b000"
           id="circle140" /></g><g
         transform="matrix(1.00133,0,0,1.03404,-86.5545,-97.8082)"
         id="g146"><circle
           cx="642.07898"
           cy="400.33301"
           r="17.117001"
           style="fill:#c4021b"
           id="circle144" /></g><g
         transform="matrix(1.00133,0,0,1.03404,-97.8963,-38.8418)"
         id="g150"><circle
           cx="642.07898"
           cy="400.33301"
           r="17.117001"
           style="fill:#f6b000"
           id="circle148" /></g><g
         transform="matrix(1.00133,0,0,1.03404,-147.267,-87.9063)"
         id="g154"><circle
           cx="642.07898"
           cy="400.33301"
           r="17.117001"
           style="fill:#f6b000"
           id="circle152" /></g><g
         transform="matrix(1.00133,0,0,1.03404,-128.639,-175.504)"
         id="g158"><circle
           cx="642.07898"
           cy="400.33301"
           r="17.117001"
           style="fill:#f6b000"
           id="circle156" /></g><g
         transform="matrix(1.00133,0,0,1.03404,-52.261,-127.758)"
         id="g162"><circle
           cx="642.07898"
           cy="400.33301"
           r="17.117001"
           style="fill:#c4021b"
           id="circle160" /></g><g
         transform="matrix(1.00133,0,0,1.03404,50.5784,-136.932)"
         id="g166"><circle
           cx="642.07898"
           cy="400.33301"
           r="17.117001"
           style="fill:#f6b000"
           id="circle164" /></g><g
         transform="matrix(1.00133,0,0,1.03404,42.5741,-65.3023)"
         id="g170"><circle
           cx="642.07898"
           cy="400.33301"
           r="17.117001"
           style="fill:#f6b000"
           id="circle168" /></g><g
         transform="matrix(1.00133,0,0,1.03404,-118.169,-131.016)"
         id="g174"><circle
           cx="642.07898"
           cy="400.33301"
           r="17.117001"
           style="fill:#f65c00"
           id="circle172" /></g><g
         transform="matrix(1.00133,0,0,1.03404,-6.49085,-179.45)"
         id="g178"><circle
           cx="642.07898"
           cy="400.33301"
           r="17.117001"
           style="fill:#f6b000"
           id="circle176" /></g><g
         transform="matrix(1.00133,0,0,1.03404,-8.41462,-131.593)"
         id="g182"><circle
           cx="642.07898"
           cy="400.33301"
           r="17.117001"
           style="fill:#f65c00"
           id="circle180" /></g><g
         transform="matrix(1.00133,0,0,1.03404,4.06413,-87.6588)"
         id="g186"><circle
           cx="642.07898"
           cy="400.33301"
           r="17.117001"
           style="fill:#c4021b"
           id="circle184" /></g><g
         transform="matrix(1.00133,0,0,1.03404,-72.2885,-195.112)"
         id="g190"><circle
           cx="642.07898"
           cy="400.33301"
           r="17.117001"
           style="fill:#f6b000"
           id="circle188" /></g></g><g
       id="Layer411"
       transform="matrix(0.701898,0,0,0.69442,518.169,112.212)"><g
         transform="translate(-470.946,-183.095)"
         id="g195"><circle
           cx="642.07898"
           cy="400.33301"
           r="17.117001"
           style="fill:#f65c00"
           id="circle193" /></g><g
         transform="translate(-268.831,-171.133)"
         id="g199"><circle
           cx="642.07898"
           cy="400.33301"
           r="17.117001"
           style="fill:#f6b000"
           id="circle197" /></g><g
         transform="translate(-589.093,28.4556)"
         id="g203"><circle
           cx="642.07898"
           cy="400.33301"
           r="17.117001"
           style="fill:#f65c00"
           id="circle201" /></g><g
         transform="matrix(0.986314,0,0,0.986314,-645.189,-97.2815)"
         id="g207"><circle
           cx="642.07898"
           cy="400.33301"
           r="17.117001"
           style="fill:#f6b000"
           id="circle205" /></g><g
         transform="matrix(0.986314,0,0,0.986314,-219.553,-40.1585)"
         id="g211"><circle
           cx="642.07898"
           cy="400.33301"
           r="17.117001"
           style="fill:#f65c00"
           id="circle209" /></g><g
         transform="matrix(0.986314,0,0,0.986314,-368.704,-44.7953)"
         id="g215"><circle
           cx="642.07898"
           cy="400.33301"
           r="17.117001"
           style="fill:#c4021b"
           id="circle213" /></g><g
         transform="translate(-277.902,109.44)"
         id="g219"><circle
           cx="642.07898"
           cy="400.33301"
           r="17.117001"
           style="fill:#f65c00"
           id="circle217" /></g><g
         transform="translate(-176.05,-64.6805)"
         id="g223"><circle
           cx="642.07898"
           cy="400.33301"
           r="17.117001"
           style="fill:#f6b000"
           id="circle221" /></g><g
         transform="translate(-359.693,22.2324)"
         id="g227"><circle
           cx="642.07898"
           cy="400.33301"
           r="17.117001"
           style="fill:#c4021b"
           id="circle225" /></g><g
         transform="translate(-578.161,-33.7379)"
         id="g231"><circle
           cx="642.07898"
           cy="400.33301"
           r="17.117001"
           style="fill:#c4021b"
           id="circle229" /></g><g
         transform="translate(-262.217,-92.8527)"
         id="g235"><circle
           cx="642.07898"
           cy="400.33301"
           r="17.117001"
           style="fill:#f65c00"
           id="circle233" /></g><g
         transform="translate(-235.443,93.2302)"
         id="g239"><circle
           cx="642.07898"
           cy="400.33301"
           r="17.117001"
           style="fill:#f6b000"
           id="circle237" /></g><g
         transform="translate(-464.039,18.1038)"
         id="g243"><circle
           cx="642.07898"
           cy="400.33301"
           r="17.117001"
           style="fill:#c4021b"
           id="circle241" /></g><g
         transform="translate(-506.262,-128.978)"
         id="g247"><circle
           cx="642.07898"
           cy="400.33301"
           r="17.117001"
           style="fill:#f65c00"
           id="circle245" /></g><g
         transform="translate(-530.781,-198.082)"
         id="g251"><circle
           cx="642.07898"
           cy="400.33301"
           r="17.117001"
           style="fill:#f6b000"
           id="circle249" /></g><g
         transform="translate(-401.277,-236.544)"
         id="g255"><circle
           cx="642.07898"
           cy="400.33301"
           r="17.117001"
           style="fill:#f6b000"
           id="circle253" /></g><g
         transform="translate(-392.044,-180.933)"
         id="g259"><circle
           cx="642.07898"
           cy="400.33301"
           r="17.117001"
           style="fill:#f65c00"
           id="circle257" /></g></g></g><g
     transform="matrix(-2.2885,-0.252923,-0.206243,1.81962,3318.4164,-1876.081)"
     id="g306"><g
       id="Layer19"><g
         id="g303"><g
           id="Layer27"><path
             d="m 1276.86,1299.48 c 0,0 15.99,16.59 -6.66,38.88 -5.37,5.29 -13.34,17.44 -12.96,21.89 -1.57,-3.01 4.11,-18.08 12.13,-28.16 5.1,-8.81 11.2,-10.42 7.49,-32.61 z"
             style="fill:#8f2704"
             id="path263"
             inkscape:connector-curvature="0" /></g><g
           id="Layer34"><path
             d="m 1250.57,1363.19 c 0,0 2.81,13.48 14.22,20.2 -8.4,0.54 -17.14,-9.13 -14.22,-20.2 z"
             style="fill:#8f2704"
             id="path266"
             inkscape:connector-curvature="0" /></g><g
           transform="translate(-1.88249,-0.0421075)"
           id="g272"><g
             id="Layer28"><path
               d="m 1271.42,1340.89 c 0,0 -25.07,29.64 16.64,48.92 0.47,0.22 -12.7,-3.98 -16.98,-5.18 -8.75,-9.16 -19.19,-23.41 0.34,-43.74 z"
               style="fill:#8f2704"
               id="path269"
               inkscape:connector-curvature="0" /></g></g><g
           id="Layer30"
           transform="translate(1)"><path
             d="m 1264.04,1326.53 c 0,0 1.54,-1.45 2.83,-2.73 -2.08,-1.7 -9.35,-7.98 -13.64,-19.83 0.67,7.91 6.43,20.28 10.81,22.56 z"
             style="fill:#8f2704"
             id="path274"
             inkscape:connector-curvature="0" /></g><g
           id="Layer31"
           transform="translate(1)"><path
             d="m 1253.95,1311.01 c -2.5,-0.43 -14.63,-5.32 -19.16,-10.28 5.59,7.81 15.87,11.8 20.41,13.68 0,0 -1.02,-2.19 -1.25,-3.4 z"
             style="fill:#8f2704"
             id="path277"
             inkscape:connector-curvature="0" /></g><g
           id="Layer32"
           transform="translate(1)"><path
             d="m 1270.44,1319.54 c 0,0 16.13,-27.22 -9.59,-27.07 19.96,3.58 9.59,27.07 9.59,27.07 z"
             style="fill:#8f2704"
             id="path280"
             inkscape:connector-curvature="0" /></g><g
           id="Layer33"><path
             d="m 1282.45,1319.3 c 0,0 15.54,-10.87 26.75,-3.18 -8.44,-10.01 -25.95,-1.63 -26.08,-0.65 -0.14,0.98 0.08,1.7 -0.67,3.83 z"
             style="fill:#8f2704"
             id="path283"
             inkscape:connector-curvature="0" /></g><g
           id="Layer35"
           transform="translate(0.192781,-0.188305)"><path
             d="m 1250.23,1375.1 c 0,0 2.1,5.41 6.97,7.48 -8.48,-0.77 -17.41,-0.92 -22.28,-0.06 5.25,-1.9 9.92,-0.18 15.31,-7.42 z"
             style="fill:#8f2704"
             id="path286"
             inkscape:connector-curvature="0" /></g><g
           transform="translate(-4.51035,-0.473289)"
           id="g292"><g
             id="Layer36"><path
               d="m 1299.86,1311.42 c 0,0 2.29,-0.48 3.86,-0.07 -0.06,-1.01 5.51,-3.98 9.67,-4.36 -4.33,-0.18 -12.46,3.38 -13.53,4.43 z"
               style="fill:#8f2704"
               id="path289"
               inkscape:connector-curvature="0" /></g></g><g
           id="Layer37"
           transform="matrix(0.349764,0,0,0.393399,1036.79,1145.01)"><path
             d="m 686.33,419.951 c 0,0 1.344,15.93 -30.538,42.807 -22.186,24.37 -29.968,36.971 -34.516,48.83 -9.445,24.629 -10.636,64.698 32.123,93.292 1.718,1.149 4.381,2.711 6.216,3.483 -48.115,-52.018 -30.508,-80.243 -20.834,-100.82 12.481,-27.647 51.664,-60.294 47.549,-87.592 z"
             style="fill:#8f2704"
             id="path294"
             inkscape:connector-curvature="0" /></g><g
           id="Layer38"
           transform="matrix(0.349764,0,0,0.393399,1036.79,1145.01)"><path
             d="m 666.94,588.585 c 0,0 -37.086,-21.742 -10.561,-72.329 -15.002,45.1 10.195,71.987 10.561,72.329 z"
             style="fill:#8f2704"
             id="path297"
             inkscape:connector-curvature="0" /></g><g
           id="Layer39"
           transform="matrix(0.349764,0,0,0.393399,1036.79,1145.01)"><path
             d="m 673.547,375.773 4.085,4.083 c 0,0 8.464,-20.823 5.041,-40.338 -0.814,20.73 -9.126,36.255 -9.126,36.255 z"
             style="fill:#8f2704"
             id="path300"
             inkscape:connector-curvature="0" /></g></g></g></g><g
     transform="translate(-1584.6336,-321.97997)"
     id="g325"><g
       id="Layer47"><g
         id="g322"><path
           d="m 1829.49,592.337 c 3.03,0.967 4.55,2.25 4.55,3.85 0,1.133 -0.45,2.583 -1.35,4.35 -0.9,1.767 -1.75,2.65 -2.55,2.65 -0.2,0 -1.13,-0.383 -2.8,-1.15 -1.67,-0.767 -3.67,-1.15 -6,-1.15 -2,0 -3.6,0.383 -4.8,1.15 -1.2,0.767 -1.8,1.883 -1.8,3.35 0,1.4 0.42,2.567 1.25,3.5 0.83,0.933 1.82,1.667 2.95,2.2 1.13,0.533 3.07,1.367 5.8,2.5 3.93,1.467 6.82,3.283 8.65,5.45 1.83,2.167 2.75,5.25 2.75,9.25 0,4.867 -1.72,8.833 -5.15,11.9 -3.43,3.067 -8.02,4.6 -13.75,4.6 -2.67,0 -5.27,-0.3 -7.8,-0.9 -2.53,-0.6 -4.6,-1.417 -6.2,-2.45 -1.6,-1.033 -2.4,-2.117 -2.4,-3.25 0,-1.067 0.57,-2.45 1.7,-4.15 1.13,-1.7 2.13,-2.55 3,-2.55 0.27,0 1,0.317 2.2,0.95 1.2,0.633 2.48,1.167 3.85,1.6 1.37,0.433 2.92,0.65 4.65,0.65 4.87,0 7.3,-1.867 7.3,-5.6 0,-1.8 -0.7,-3.2 -2.1,-4.2 -1.4,-1 -3.73,-2.1 -7,-3.3 -4,-1.267 -7.07,-3.033 -9.2,-5.3 -2.13,-2.267 -3.2,-5.5 -3.2,-9.7 0,-4.8 1.62,-8.617 4.85,-11.45 3.23,-2.833 7.52,-4.25 12.85,-4.25 3.47,0 6.72,0.483 9.75,1.45 z"
           style="fill:#8f2704;fill-rule:nonzero"
           id="path308"
           inkscape:connector-curvature="0" /><path
           d="m 1881.09,595.287 c 3.43,2.867 5.15,6.867 5.15,12 v 20.1 c 0,4.6 0.2,7.933 0.6,10 0.4,2.067 0.6,3.333 0.6,3.8 0,0.933 -1.1,1.65 -3.3,2.15 -2.2,0.5 -4.13,0.75 -5.8,0.75 -1.07,0 -1.83,-0.483 -2.3,-1.45 -0.47,-0.967 -0.82,-2.017 -1.05,-3.15 -0.23,-1.133 -0.38,-1.9 -0.45,-2.3 -1.53,1.867 -3.57,3.583 -6.1,5.15 -2.53,1.567 -5.67,2.35 -9.4,2.35 -5.07,0 -8.93,-1.317 -11.6,-3.95 -2.67,-2.633 -4,-6.217 -4,-10.75 0,-12.267 10.1,-18.433 30.3,-18.5 v -3.8 c 0,-4.467 -3,-6.7 -9,-6.7 -2.47,0 -4.65,0.283 -6.55,0.85 -1.9,0.567 -3.53,1.167 -4.9,1.8 -1.37,0.633 -2.15,0.95 -2.35,0.95 -0.87,0 -1.85,-0.917 -2.95,-2.75 -1.1,-1.833 -1.65,-3.217 -1.65,-4.15 0,-1.067 0.85,-2.117 2.55,-3.15 1.7,-1.033 4.02,-1.883 6.95,-2.55 2.93,-0.667 6.1,-1 9.5,-1 7.07,0 12.32,1.433 15.75,4.3 z m -20.35,26.95 c -3.13,1.233 -4.7,3.417 -4.7,6.55 0,1.8 0.53,3.217 1.6,4.25 1.07,1.033 2.63,1.55 4.7,1.55 2.33,0 4.48,-0.6 6.45,-1.8 1.97,-1.2 3.62,-2.767 4.95,-4.7 v -7.8 c -5.53,0.067 -9.87,0.717 -13,1.95 z"
           style="fill:#8f2704;fill-rule:nonzero"
           id="path310"
           inkscape:connector-curvature="0" /><path
           d="m 1971.34,607.187 v 34.2 c 0,1.867 -1.77,2.8 -5.3,2.8 h -1.9 c -3.53,0 -5.3,-0.933 -5.3,-2.8 v -32.5 c 0,-5 -2.4,-7.5 -7.2,-7.5 -2.2,0 -4.08,0.65 -5.65,1.95 -1.57,1.3 -2.85,2.75 -3.85,4.35 v 33.7 c 0,1.867 -1.77,2.8 -5.3,2.8 h -1.9 c -3.53,0 -5.3,-0.933 -5.3,-2.8 v -32.5 c 0,-5 -2.4,-7.5 -7.2,-7.5 -2.27,0 -4.25,0.7 -5.95,2.1 -1.7,1.4 -2.88,2.767 -3.55,4.1 v 33.8 c 0,1.867 -1.77,2.8 -5.3,2.8 h -1.9 c -3.53,0 -5.3,-0.933 -5.3,-2.8 v -33 c 0,-4.467 -0.2,-7.717 -0.6,-9.75 -0.4,-2.033 -0.6,-3.283 -0.6,-3.75 0,-0.933 1.1,-1.65 3.3,-2.15 2.2,-0.5 4.13,-0.75 5.8,-0.75 1.07,0 1.83,0.467 2.3,1.4 0.47,0.933 0.82,1.917 1.05,2.95 0.23,1.033 0.38,1.75 0.45,2.15 1.73,-2.133 3.92,-3.917 6.55,-5.35 2.63,-1.433 5.45,-2.15 8.45,-2.15 7,0 11.53,2.6 13.6,7.8 1.8,-2.2 4.08,-4.05 6.85,-5.55 2.77,-1.5 5.68,-2.25 8.75,-2.25 10,0 15,5.4 15,16.2 z"
           style="fill:#8f2704;fill-rule:nonzero"
           id="path312"
           inkscape:connector-curvature="0" /><path
           d="m 2025.44,593.487 c 0,0.4 -0.1,0.967 -0.3,1.7 l -16,47.1 c -0.47,1.267 -2.13,1.9 -5,1.9 h -3.3 c -2.93,0 -4.63,-0.633 -5.1,-1.9 l -15.9,-47.2 c -0.27,-0.667 -0.4,-1.2 -0.4,-1.6 0,-1.333 1.83,-2 5.5,-2 h 2.2 c 2.93,0 4.63,0.633 5.1,1.9 l 7.4,23.4 2.2,8.6 0.9,3.6 h 0.4 c 1,-5.133 1.93,-9.167 2.8,-12.1 l 7.5,-23.5 c 0.47,-1.267 2.17,-1.9 5.1,-1.9 h 1.7 c 3.47,0 5.2,0.667 5.2,2 z"
           style="fill:#8f2704;fill-rule:nonzero"
           id="path314"
           inkscape:connector-curvature="0" /><path
           d="m 2071.34,597.987 c 3.47,4.667 5.2,10.967 5.2,18.9 0,0.733 -0.57,1.783 -1.7,3.15 -1.13,1.367 -2.03,2.05 -2.7,2.05 h -27.7 c 0.33,4.467 1.57,7.683 3.7,9.65 2.13,1.967 5.2,2.95 9.2,2.95 2.2,0 4.15,-0.267 5.85,-0.8 1.7,-0.533 3.45,-1.2 5.25,-2 1.07,-0.467 1.7,-0.7 1.9,-0.7 0.87,0 1.85,0.867 2.95,2.6 1.1,1.733 1.65,3.067 1.65,4 0,1.267 -0.97,2.433 -2.9,3.5 -1.93,1.067 -4.32,1.9 -7.15,2.5 -2.83,0.6 -5.48,0.9 -7.95,0.9 -8.6,0 -15,-2.267 -19.2,-6.8 -4.2,-4.533 -6.3,-11.1 -6.3,-19.7 0,-9.2 2.08,-16.033 6.25,-20.5 4.17,-4.467 10.05,-6.7 17.65,-6.7 7.2,0 12.53,2.333 16,7 z m -26.9,15.2 h 19.7 c 0,-3.867 -0.73,-6.867 -2.2,-9 -1.47,-2.133 -3.7,-3.2 -6.7,-3.2 -6.27,0 -9.87,4.067 -10.8,12.2 z"
           style="fill:#8f2704;fill-rule:nonzero"
           id="path316"
           inkscape:connector-curvature="0" /><path
           d="m 2115.09,592.437 c 0.9,0.967 1.35,2.083 1.35,3.35 0,1.267 -0.27,2.8 -0.8,4.6 -0.53,1.8 -1.17,2.7 -1.9,2.7 -0.33,0 -1,-0.15 -2,-0.45 -1,-0.3 -2,-0.45 -3,-0.45 -1.93,0 -3.62,0.6 -5.05,1.8 -1.43,1.2 -2.55,2.4 -3.35,3.6 v 33.8 c 0,1.867 -1.77,2.8 -5.3,2.8 h -1.9 c -3.53,0 -5.3,-0.933 -5.3,-2.8 v -33 c 0,-4.467 -0.2,-7.717 -0.6,-9.75 -0.4,-2.033 -0.6,-3.283 -0.6,-3.75 0,-0.933 1.1,-1.65 3.3,-2.15 2.2,-0.5 4.13,-0.75 5.8,-0.75 1.07,0 1.83,0.467 2.3,1.4 0.47,0.933 0.82,1.917 1.05,2.95 0.23,1.033 0.38,1.75 0.45,2.15 1.47,-2.333 3.1,-4.167 4.9,-5.5 1.8,-1.333 3.9,-2 6.3,-2 2,0 3.45,0.483 4.35,1.45 z"
           style="fill:#8f2704;fill-rule:nonzero"
           id="path318"
           inkscape:connector-curvature="0" /><path
           d="m 2159.39,595.287 c 3.43,2.867 5.15,6.867 5.15,12 v 20.1 c 0,4.6 0.2,7.933 0.6,10 0.4,2.067 0.6,3.333 0.6,3.8 0,0.933 -1.1,1.65 -3.3,2.15 -2.2,0.5 -4.13,0.75 -5.8,0.75 -1.07,0 -1.83,-0.483 -2.3,-1.45 -0.47,-0.967 -0.82,-2.017 -1.05,-3.15 -0.23,-1.133 -0.38,-1.9 -0.45,-2.3 -1.53,1.867 -3.57,3.583 -6.1,5.15 -2.53,1.567 -5.67,2.35 -9.4,2.35 -5.07,0 -8.93,-1.317 -11.6,-3.95 -2.67,-2.633 -4,-6.217 -4,-10.75 0,-12.267 10.1,-18.433 30.3,-18.5 v -3.8 c 0,-4.467 -3,-6.7 -9,-6.7 -2.47,0 -4.65,0.283 -6.55,0.85 -1.9,0.567 -3.53,1.167 -4.9,1.8 -1.37,0.633 -2.15,0.95 -2.35,0.95 -0.87,0 -1.85,-0.917 -2.95,-2.75 -1.1,-1.833 -1.65,-3.217 -1.65,-4.15 0,-1.067 0.85,-2.117 2.55,-3.15 1.7,-1.033 4.02,-1.883 6.95,-2.55 2.93,-0.667 6.1,-1 9.5,-1 7.07,0 12.32,1.433 15.75,4.3 z m -20.35,26.95 c -3.13,1.233 -4.7,3.417 -4.7,6.55 0,1.8 0.53,3.217 1.6,4.25 1.07,1.033 2.63,1.55 4.7,1.55 2.33,0 4.48,-0.6 6.45,-1.8 1.97,-1.2 3.62,-2.767 4.95,-4.7 v -7.8 c -5.53,0.067 -9.87,0.717 -13,1.95 z"
           style="fill:#8f2704;fill-rule:nonzero"
           id="path320"
           inkscape:connector-curvature="0" /></g></g></g><g
     aria-label="TM"
     style="font-style:normal;font-variant:normal;font-weight:500;font-stretch:normal;font-size:40px;line-height:1.25;font-family:Asap;-inkscape-font-specification:'Asap, Medium';font-variant-ligatures:normal;font-variant-caps:normal;font-variant-numeric:normal;font-feature-settings:normal;text-align:start;letter-spacing:0px;word-spacing:0px;writing-mode:lr-tb;text-anchor:start;fill:#8f2704;fill-opacity:1;stroke:none"
     id="text337"
     transform="translate(-2.893649,-0.95097374)"><path
       d="m 602.14358,270.60644 h -12.58667 c -0.48,0 -0.69333,0.34666 -0.69333,1.14666 v 0.66667 c 0,0.8 0.21333,1.14667 0.69333,1.14667 h 4.56 v 15.01333 c 0,0.48 0.42667,0.74667 1.41334,0.74667 h 0.66666 c 0.98667,0 1.41334,-0.26667 1.41334,-0.74667 v -15.01333 h 4.53333 c 0.48,0 0.69333,-0.34667 0.69333,-1.14667 v -0.66667 c 0,-0.8 -0.21333,-1.14666 -0.69333,-1.14666 z"
       style="font-style:normal;font-variant:normal;font-weight:500;font-stretch:normal;font-size:26.66666603px;font-family:Asap;-inkscape-font-specification:'Asap, Medium';font-variant-ligatures:normal;font-variant-caps:normal;font-variant-numeric:normal;font-feature-settings:normal;text-align:start;writing-mode:lr-tb;text-anchor:start;fill:#8f2704;fill-opacity:1"
       id="path339"
       inkscape:connector-curvature="0" /><path
       d="m 622.21899,270.5531 h -1.2 c -0.72,0 -1.22666,0.18667 -1.46666,0.64 l -4.72,8.26667 -0.4,0.82667 -0.37334,-0.85334 -4.69333,-8.24 c -0.24,-0.45333 -0.74666,-0.64 -1.46666,-0.64 h -1.25334 c -0.98666,0 -1.41333,0.26667 -1.41333,0.74667 v 17.28 c 0,0.48 0.42667,0.74667 1.41333,0.74667 h 0.56 c 0.98667,0 1.38667,-0.26667 1.38667,-0.74667 v -12.32 l 0.10667,0.0267 4.39999,7.81333 c 0.21334,0.29333 0.48,0.45333 0.90667,0.45333 h 0.88 c 0.42667,0 0.69333,-0.16 0.88,-0.45333 l 4.4,-7.76 h 0.08 v 12.24 c 0,0.48 0.42667,0.74667 1.41333,0.74667 h 0.56 c 0.98667,0 1.41334,-0.26667 1.41334,-0.74667 v -17.28 c 0,-0.48 -0.42667,-0.74667 -1.41334,-0.74667 z"
       style="font-style:normal;font-variant:normal;font-weight:500;font-stretch:normal;font-size:26.66666603px;font-family:Asap;-inkscape-font-specification:'Asap, Medium';font-variant-ligatures:normal;font-variant-caps:normal;font-variant-numeric:normal;font-feature-settings:normal;text-align:start;writing-mode:lr-tb;text-anchor:start;fill:#8f2704;fill-opacity:1"
       id="path341"
       inkscape:connector-curvature="0" /></g></svg>